<?xml version="1.0" standalone="no"?>
<!DOCTYPE svg PUBLIC "-//W3C//DTD SVG 20010904//EN"
 "http://www.w3.org/TR/2001/REC-SVG-20010904/DTD/svg10.dtd">
<svg version="1.0" xmlns="http://www.w3.org/2000/svg"
 width="1200.000000pt" height="1200.000000pt" viewBox="0 0 1200.000000 1200.000000"
 preserveAspectRatio="xMidYMid meet">
<metadata>
Created by potrace 1.14, written by Peter Selinger 2001-2017
</metadata>
<g transform="translate(0.000000,1200.000000) scale(0.100000,-0.100000)"
fill="#000000" stroke="none">
<path d="M5710 11071 c-49 -26 -89 -70 -99 -109 -7 -23 -10 -354 -10 -872 0
-459 0 -868 -1 -907 0 -51 -4 -73 -12 -73 -7 0 -46 -17 -86 -37 -142 -71 -262
-212 -313 -369 -21 -65 -22 -88 -24 -407 -1 -186 -6 -342 -11 -346 -5 -4 -49
-15 -99 -25 -107 -21 -122 -24 -143 -30 -9 -3 -28 -7 -42 -10 -129 -23 -557
-184 -680 -256 -8 -5 -46 -25 -85 -46 -38 -20 -82 -45 -97 -55 -14 -11 -28
-19 -31 -19 -13 0 -227 -148 -326 -225 -227 -176 -419 -364 -589 -576 -282
-349 -501 -750 -638 -1165 -68 -207 -129 -465 -149 -630 -4 -33 -9 -68 -11
-78 -26 -141 -25 -676 0 -812 2 -11 7 -46 11 -79 3 -33 10 -78 15 -100 5 -22
11 -56 14 -76 9 -58 72 -297 104 -394 87 -264 230 -561 310 -648 31 -32 107
-58 154 -51 36 6 90 44 122 88 16 21 21 42 21 89 0 56 -6 73 -56 172 -67 130
-128 272 -174 404 -33 96 -76 243 -71 248 1 1 40 -23 87 -54 184 -124 480
-280 674 -356 215 -84 563 -187 689 -203 22 -4 45 -10 49 -14 8 -7 17 -47 41
-177 28 -146 128 -464 210 -663 93 -224 249 -511 380 -696 31 -43 54 -80 52
-81 -6 -7 -247 78 -356 124 -315 134 -637 338 -870 550 -41 37 -131 125 -200
194 -109 110 -130 127 -165 132 -116 18 -209 -55 -219 -172 -6 -71 23 -112
202 -290 218 -219 421 -379 684 -544 334 -209 820 -385 1218 -443 58 -8 116
-17 130 -20 156 -27 601 -26 845 2 46 6 278 46 335 58 14 3 34 8 45 10 431 89
965 334 1352 622 120 89 129 96 244 197 454 395 805 923 999 1507 17 52 33
102 35 110 2 8 14 58 28 110 27 101 29 109 53 235 15 81 17 91 29 180 4 28 8
59 10 71 25 163 25 634 0 774 -3 14 -7 45 -10 70 -4 38 -31 202 -50 305 -7 37
-45 185 -52 205 -3 8 -7 22 -9 31 -2 8 -20 64 -40 125 -109 326 -269 643 -466
924 -45 63 -84 117 -87 120 -4 3 -22 25 -41 50 -91 120 -307 346 -440 460
-373 322 -790 556 -1254 706 -113 36 -346 96 -426 108 -13 3 -15 45 -16 302
-2 389 -6 418 -70 549 -65 135 -159 226 -296 290 l-73 33 -1 914 c0 907 -1
913 -21 953 -35 67 -82 97 -155 100 -30 1 -60 -4 -78 -14z m189 -2321 c21 -10
55 -38 74 -61 62 -72 66 -96 66 -414 l1 -285 -48 7 c-53 7 -302 9 -402 2 l-65
-4 1 295 0 295 27 51 c50 97 141 148 250 139 31 -3 75 -14 96 -25z m12 -1125
c305 -79 605 -436 832 -990 52 -127 126 -344 157 -460 12 -44 30 -111 40 -148
l18 -68 -26 5 c-15 3 -47 8 -72 11 -25 3 -56 8 -70 10 -14 2 -52 7 -85 10 -33
4 -73 8 -90 10 -16 2 -64 6 -105 10 -41 3 -91 8 -110 10 -256 27 -1030 27
-1245 0 -16 -2 -64 -7 -105 -10 -41 -3 -91 -8 -110 -10 -19 -2 -60 -7 -90 -10
-30 -3 -64 -7 -75 -10 -11 -2 -42 -7 -70 -10 -27 -4 -60 -8 -72 -10 -28 -4
-27 -9 -3 92 140 586 393 1096 677 1363 122 116 218 170 373 213 40 11 175 6
231 -8z m-1018 -128 c-4 -6 -44 -66 -88 -132 -186 -278 -332 -577 -444 -910
-35 -106 -100 -346 -116 -430 -6 -33 -16 -91 -20 -115 -2 -16 2 -15 -210 -65
-377 -90 -682 -210 -1015 -400 -74 -42 -167 -99 -207 -126 -44 -30 -73 -44
-73 -36 0 8 16 65 36 128 151 478 424 928 774 1279 98 98 222 211 262 238 13
9 25 19 28 22 10 12 127 98 200 147 241 161 489 282 770 379 108 37 114 39
103 21z m1835 -3 c106 -30 357 -135 498 -208 407 -210 734 -481 1057 -877 53
-65 204 -294 259 -394 107 -192 196 -396 258 -590 17 -55 36 -113 41 -129 8
-27 8 -28 -14 -13 -249 162 -523 308 -748 398 -181 72 -496 165 -654 193 -55
10 -78 15 -80 18 -1 2 -14 62 -29 133 -72 348 -173 641 -323 940 -94 188 -227
409 -303 505 -17 22 -29 40 -25 40 4 0 32 -7 63 -16z m-608 -1818 c189 -9 352
-20 440 -31 14 -2 57 -6 95 -10 39 -4 77 -9 85 -10 8 -1 40 -6 70 -11 30 -4
57 -8 60 -9 3 -1 34 -5 70 -9 76 -10 99 -20 98 -44 -1 -9 7 -69 17 -132 20
-133 21 -142 30 -235 3 -38 8 -86 10 -105 2 -19 7 -64 10 -100 4 -37 16 -82
28 -103 43 -77 150 -110 231 -72 74 35 111 111 102 208 -3 29 -8 84 -11 122
-3 39 -8 84 -10 100 -2 17 -7 57 -10 90 -3 33 -8 71 -10 85 -14 77 -15 90 -4
90 22 0 237 -60 370 -103 326 -107 676 -282 854 -428 85 -70 195 -190 233
-256 76 -129 95 -263 52 -378 -118 -314 -567 -611 -1231 -814 -90 -28 -175
-52 -189 -55 -14 -3 -40 -10 -59 -15 -19 -6 -36 -9 -38 -7 -2 2 3 53 11 112 8
60 18 145 21 189 4 44 9 82 10 85 6 11 20 267 20 371 0 101 -1 107 -29 143
-59 78 -165 96 -246 42 -62 -41 -78 -84 -85 -222 -3 -66 -8 -144 -10 -174 -3
-30 -7 -81 -10 -112 -7 -94 -26 -265 -39 -348 -2 -14 -7 -47 -11 -73 -9 -64
-14 -89 -18 -94 -5 -5 -18 -7 -157 -28 -34 -6 -106 -15 -160 -20 -25 -3 -63
-7 -85 -10 -41 -5 -102 -11 -177 -19 -43 -5 -189 -13 -368 -21 -301 -14 -778
0 -1057 30 -193 21 -242 27 -368 46 -128 19 -122 15 -129 62 -3 23 -8 56 -11
72 -10 66 -35 275 -41 345 -3 41 -7 89 -9 105 -24 194 -24 836 0 1085 2 25 6
75 9 111 3 37 8 82 10 100 3 19 8 57 11 84 4 28 8 65 11 83 2 17 6 47 8 65 13
96 19 127 25 128 3 0 15 2 26 5 11 2 36 6 55 8 52 8 108 16 170 26 47 7 94 13
215 25 27 3 158 14 229 20 32 2 126 7 209 10 84 4 152 7 153 8 5 5 382 -1 524
-7z m-1974 -238 c-4 -35 -9 -76 -11 -93 -15 -103 -33 -310 -42 -455 -14 -248
-7 -875 12 -1015 2 -16 6 -61 9 -100 3 -38 13 -127 22 -198 10 -70 15 -129 13
-132 -8 -7 -223 53 -394 110 -585 194 -992 471 -1113 757 -22 54 -26 77 -26
163 0 112 16 162 85 266 51 75 170 196 249 252 284 199 624 353 1025 462 55
15 111 31 125 35 51 17 53 15 46 -52z m4694 -1795 c-5 -16 -19 -64 -33 -108
-142 -463 -414 -915 -758 -1266 -151 -152 -213 -208 -355 -315 -289 -218 -619
-392 -935 -493 -49 -16 -89 -27 -89 -25 0 3 31 51 68 107 203 302 347 593 457
921 44 131 106 352 120 426 20 111 28 148 33 156 4 6 36 16 72 23 107 20 111
21 210 46 108 27 378 115 445 145 11 4 69 30 130 56 197 86 503 256 610 338
29 22 35 20 25 -11z m-4065 -683 c33 -5 89 -12 125 -15 36 -3 81 -8 100 -10
43 -5 137 -14 205 -20 273 -24 938 -24 1140 0 17 2 73 6 125 10 52 3 102 8
110 10 8 2 44 6 80 10 36 3 81 8 100 11 19 3 51 7 70 9 19 3 57 7 84 11 42 5
48 4 43 -10 -6 -15 -35 -121 -42 -156 -2 -8 -17 -60 -34 -115 -266 -884 -701
-1419 -1131 -1392 -97 6 -158 24 -249 74 -309 168 -582 587 -786 1208 -25 76
-105 371 -105 388 0 8 56 4 165 -13z"/>
<path d="M2570 9107 c-24 -45 -58 -107 -74 -138 -28 -53 -37 -61 -121 -105
-137 -72 -178 -98 -175 -109 1 -6 41 -31 89 -56 185 -98 168 -83 251 -233 41
-75 77 -133 81 -128 4 4 39 66 79 137 l71 131 139 74 c76 41 135 78 132 82 -4
3 -67 39 -140 78 l-132 72 -76 139 c-42 76 -76 139 -77 139 -1 0 -22 -37 -47
-83z"/>
<path d="M9125 8746 c-63 -27 -107 -106 -99 -176 5 -45 48 -98 96 -120 131
-58 262 76 205 211 -31 74 -130 116 -202 85z"/>
<path d="M10208 5838 c-8 -13 -42 -75 -77 -138 l-62 -115 -139 -75 c-157 -84
-154 -71 -25 -141 181 -97 171 -86 287 -316 12 -24 25 -43 30 -43 4 0 40 60
80 134 l73 135 80 43 c44 23 106 56 137 73 32 16 58 33 58 37 0 3 -63 41 -139
83 -118 64 -142 82 -158 113 -34 68 -125 232 -128 232 -1 0 -9 -10 -17 -22z"/>
<path d="M1741 5589 c-63 -13 -117 -72 -125 -136 -4 -39 19 -108 45 -134 26
-26 92 -49 128 -45 49 6 108 46 126 87 57 124 -43 256 -174 228z"/>
<path d="M9890 2749 c-112 -47 -129 -209 -29 -280 46 -32 108 -36 163 -9 25
12 46 26 46 30 0 5 7 16 15 24 9 9 19 38 22 65 7 58 -20 124 -64 155 -31 23
-116 31 -153 15z"/>
<path d="M1669 2292 c-55 -101 -83 -141 -105 -152 -64 -33 -210 -114 -227
-125 -19 -13 -3 -23 208 -136 47 -24 55 -35 125 -163 41 -75 77 -136 80 -136
3 0 17 21 30 48 124 236 106 216 300 320 47 24 88 48 92 51 6 5 -190 121 -242
142 -9 4 -21 13 -28 21 -11 14 -81 140 -124 226 -12 23 -24 42 -27 42 -4 0
-40 -62 -82 -138z"/>
</g>
</svg>
